<svg xmlns="http://www.w3.org/2000/svg" id="Camada_1" data-name="Camada 1" version="1.1" viewBox="19 0.1 555.2 372.4">
  <defs>
    <style>
      .cls-1 {
        fill: #fff;
      }

      .cls-1, .cls-2 {
        stroke-width: 0px;
      }

      .cls-2 {
        fill: #ff7bac;
      }
    </style>
  </defs>
  <path class="cls-2" d="M561.8,187.8l-11-4h0v-.2h.2v-.2h.2v-.2h.2v-.2h.2v-.2h.2v-.2h.2v-.2h.2v-.2h.2v-.2h.2v-.2h.2v-.2h.2v-.2h.2v-.2h.2v-.2h.2v-.2h.2v-.2h.2v-.2h.2v-.2h.2v-.2h.2v-.2h.2v-.2h.2v-.2h.2v-.2h.2v-.2h.2v-.2h.2v-.2h.2v-.2h.2v-.2h.2v-.2h.2v-.2h.2v-.2h.2v-.2h.2v-.2h.2v-.2h.2v-.2h.2v-.2h.2v-.2h.2v-.2h.2v-.2h.2v-.2h.2v-.2h.2v-.2h.2v-.2h.2v-.2h.2v-.2h.2v-.2h.2v-.2h.2v-.2h.2v-.2h.2v-.2h.2v-.2h.2v-.2h.2v-.2h.2v-.2h.2v-.2h.2v-.2h.2v-.2h.2v-.2h.2v-.2h.2v-.2h.2v-.2h.2v-.2h.2v-.2h.2v-.2h.2v-.2h.2v-.2h.2v-.2h.2v-.2h.2v-.2h.2v-.2h.2v-.2h.2v-.2h.2v-.2h.2v-.2h.2v-.2h.2v-.2h.2v-.2h.2v-.2h.2v-.2h.2v-.2h.2v-.2h.2v-.2h.2v-.2h.2v-.2h.2v-.2h.2v-.2h.2v-.2h.2v-.2h.2v-.2h.2s.6-41.7.6-41.7l-46.8,8.4-10.6,6.7h0c0-.1.2-.1.2-.1v-.2h.2v-.2h.2v-.2h.2v-.2h.2v-.2h.2v-.2h.2v-.2h.2v-.2h.2v-.2h.2v-.2h.2v-.2h.2v-.2h.2v-.2h.2v-.2h.2s1.2-82.8,1.2-82.8l-17.1,3.1h0s.2,0,.2,0v-.2h.2v-.2h.2v-.2h.2v-.2h.2v-.2h.2v-.2h.2v-.2h.2v-.2h.2v-.2h.2v-.2h.2v-.2h.2v-.2h.2v-.2h.2v-.2h.2v-.2h.2v-.2h.2v-.2h.2v-.2h.2v-.2h.2v-.2h.2v-.2h.2v-.2h.2v-.2h.2v-.2h.2v-.2h.2v-.2h.2v-.2h.2v-.2h.2v-.2h.2v-.2h.2v-.2h.2v-.2h.2v-.2h.2v-.2h.2v-.2h.2v-.2h.2v-.2h.2v-.2h.2v-.2h.2v-.2h.2v-.2h.2v-.2h.2v-.2h.2v-.2h.2v-.2h.2v-.2h.2v-.2h.2v-.2h.2v-.2h.2v-.2h.2v-.2h.2v-.2h.2v-.2h.2v-.2h.2v-.2h.2v-.2h.2v-.2h.2v-.2h.2v-.2h.2v-.2h.2v-.2h.2v-.2h.2v-.2h.2v-.2h.2v-.2h.2v-.2h.2v-.2h.2v-.2h.2v-.2h.2v-.2h.2v-.2h.2v-.2h.2v-.2h.2v-.2h.2v-.2h.2s.6-41.7.6-41.7l-64.1,11.5-22,14h0c0,0-.1.2-.1.2h0c0,0-.1.2-.1.2h0c0,0-.1.2-.1.2h0c0,0-.1.2-.1.2h0c0,0-.1.2-.1.2h0c0,0-.1.2-.1.2h0c0,0-.1.2-.1.2h0c0,0-.1.2-.1.2h0c0,0-.1.2-.1.2h0c0,0-.1.2-.1.2h0c0,0-.1.2-.1.2h0c0,0-.1.2-.1.2h0c0,0-.1.2-.1.2h0c0,0-.1.2-.1.2h0c0,0-.1.2-.1.2h0c0,0-.1.2-.1.2h0c0,0-.1.2-.1.2h0c0,0-.1.2-.1.2h0c0,0-.1.2-.1.2h0c0,0-.1.2-.1.2h0c0,0-.1.2-.1.2h0c0,0-.1.2-.1.2h0c0,0-.1.2-.1.2h0c0,0-.1.2-.1.2h0c0,0-.1.2-.1.2h0c0,0-.1.2-.1.2h0c0,0-.1.2-.1.2h0c0,0-.1.2-.1.2h0c0,0-.1.2-.1.2h0c0,0-.1.2-.1.2h0c0,0-.1.2-.1.2h0c0,0-.1.2-.1.2h0c0,0-.1.2-.1.2h0c0,0-.1.2-.1.2h0c0,0-.1.2-.1.2h0c0,0-.1.2-.1.2h0c0,0-.1.2-.1.2h0c0,0-.1.2-.1.2h0c0,0-.1.2-.1.2h0c0,0-.1.2-.1.2h0c0,0-.1.2-.1.2h0c0,0-.1.2-.1.2h0c0,0-.1.2-.1.2h0c0,0-.1.2-.1.2h0c0,0-.1.2-.1.2h0c0,0-.1.2-.1.2h0c0,0-.1.2-.1.2h0c0,0-.1.2-.1.2h0c0,0-.1.2-.1.2h0c0,0-.1.2-.1.2h0c0,0-.1.2-.1.2h0c0,0-.1.2-.1.2h0c0,0-.1.2-.1.2h0c0,0-.1.2-.1.2h0c0,0-.1.2-.1.2h0c0,0-.1.2-.1.2h0c0,0-.1.2-.1.2h0c0,0-.1.2-.1.2h0c0,0-.1.2-.1.2h0c0,0-.1.2-.1.2h0c0,0-.1.2-.1.2h0c0,0-.1.2-.1.2h0c0,0-.1.2-.1.2h0c0,0-.1.2-.1.2h0c0,0-.1.2-.1.2h0c0,0-.1.2-.1.2h0c0,0-.1.2-.1.2h0c0,0-.1.2-.1.2h0c0,0-.1.2-.1.2h0c0,0-.1.2-.1.2h0c0,0-.1.2-.1.2h0c0,0-.1.2-.1.2h0c0,0,.3-21.3.3-21.3l-42,7.5v.2h-.2v.2h-.2v.2h-.2v.2h-.2v.2h-.2v.2h-.2v.2h-.2v.2h-.2v.2h-.2v.2h-.2v.2h-.2v.2h-.2v.2h-.2v.2h-.2v.2h-.2v.2h-.2v.2h-.2v.2h-.2v.2h-.2v.2h-.2v.2h-.2v.2h-.2v.2h-.2v.2h-.2v.2h-.2v.2h-.2v.2h-.2v.2h-.2v.2h-.2v.2h-.2v.2h-.2v.2h-.2v.2h-.2v.2h-.2v.2h-.2v.2h-.2v.2h-.2v.2h-.2v.2h-.2v.2h-.2v.2h-.2v.2h-.2v.2h-.2v.2h-.2v.2h-.2v.2h-.2v.2h-.2v.2h-.2v.2h-.2v.2h-.2v.2h-.2v.2h-.2v.2h-.2v.2h-.2v.2h-.2v.2h-.2v.2h-.2v.2h-.2v.2h-.2v.2h-.2v.2h-.2v.2h-.2v.2h-.2v.2h-.2v.2h-.2v.2h-.2v.2h-.2v.2h-.2v.2h-.2v.2h-.2v.2h-.2v.2h0s.2-11.2.2-11.2l-42,7.5v.2h-.2v.2h-.2v.2h-.2v.2h-.2v.2h-.2v.2h-.2v.2h-.2v.2h-.2v.2h-.2v.2h-.2v.2h-.2v.2h-.2v.2h-.2v.2h-.2v.2h-.2v.2h-.2v.2h-.2v.2h-.2v.2h-.2v.2h-.2v.2h-.2v.2h-.2v.2h-.2v.2h-.2v.2h-.2v.2h-.2v.2h-.2v.2h-.2v.2h-.2v.2h-.2v.2h-.2v.2h-.2v.2h-.2v.2h-.2v.2h-.1s0-5.4,0-5.4l-40.7,7.3h0l-40.4,7.2v.2h-.2v.2h-.2v.2h-.2v.2h-.2v.2h-.2v.2h-.2v.2h-.2v.2h-.2v.2h-.2v.2h-.2v.2l-.2.7v.2h-.2v.2h-.2v.2h-.2v.2h-.2v.2h-.2v.2h-.2v.2h-.2v.2h-.2v.2h-.2v.2h-.2v.2h-.2v.2h-.2v.2h-.2v.2h-.2v.2h-.2v.2h-.2v.2h-.2v.2h-.2v.2h-.2v.2h-.2v.2h-.2v.2h-.2v.2h-.2v.2h-.2v.2h-.2v.2h-.2v.2h-.2v.2h-.2v.2h-.2v.2h-.2v.2h-.2v.2h-.2v.2h-.2v.2h-.2v.2h-.2v.2h-.2v.2h-.2v.2h-.2v.2h-.2v.2h-.2v.2h-.2v.2h-.2v.2h-.2v.2h-.2v.2h-.2v.2h-.2v.2h-.2v.2h-.2v.2h-.2v.2h-.2v.2-.2c-.1,0-.1.2-.1.2h-.2v.2h-.2v.2h-.2v.2h-.2v.2h-.2v.2h-.2v.2h-.2v.2h-.2v.2h-.2v.2h-.2v.2h-.2v.2h-.2v.2h-.2v.2h-.2v.2h-.2v.2h-.2v.2h-.2v.2h-.2v.2h-.2v.2h-.2v.2h-.2v.2h-.2v.2h-.2v.2h0l.2-13.4-40.4,7.2v.2h-.2v.2h-.2v.2h-.2v.2h-.2v.2h-.2v.2h-.2v.2h-.2v.2h-.2v.2h-.2v.2h-.2v.2h-.2v.2h-.2v.2h-.2v.2h-.2v.2h-.2v.2h-.2v.2h-.2v.2h-.2v.2h-.2v.2h-.2v.2h-.2v.2h-.2v.2h-.2v.2h-.2v.2h-.2v.2h-.2v.2h-.2v.2h-.2v.2h-.2v.2h-.2v.2h-.2v.2h-.2v.2h-.2v.2h-.2v.2h-.2v.2h-.2v.2h-.2v.2h-.2v.2h-.2v.2h-.2v.2h-.2v.2h-.2v.2h-.2v.2h-.2v.2h-.2v.2h-.2v.2h-.2v.2h-.2v.2h-.2v.2h-.2v.2h-.2v.2h-.2v.2h-.2v.2h-.2v.2h-.2v.2h-.2v.2h-.2v.2h-.2v.2h-.2v.2h-.2v.2h-.2v.2h-.2v.2h-.2v.2h-.2v.2h-.2v.2h-.2v.2h-.2v.2h-.2v.2h-.2v.2h-.2v.2h-.2v.2h-.2v.2h-.2v.2h-.2v.2h-.2v.2h-.2v.2h-.2v.2h-.2v.2h-.2v.2h-.2v.2h-.2v.2h-.2v.2h-.2v.2h-.2v.2h-.2v.2h-.2s.2-13.4.2-13.4l-40.4,7.2h0l-80.1,13.9v.2h-.2v.2h-.2v.2h-.2v.2h-.2v.2h-.2v.2h-.2v.2h-.2v.2h-.2v.2h-.2v.2h-.2v.2h-.2v.2h-.2v.2h-.2v.2h-.2v.2h-.2v.2h-.2v.2h-.2v.2h-.2v.2h-.2v.2h-.2v.2h-.2v.2h-.2v.2h-.2v.2h-.2v.2h-.2v.2h-.2v.2h-.2v.2h-.2v.2h-.2v.2h-.2v.2h-.2v.2h-.2v.2h-.2v.2h-.2v.2h-.2v.2h-.2v.2h-.2v.2h-.2v.2h-.2v.2h-.2v.2h-.2v.2h-.2v.2h-.1c0-.1,0,0,0,0h-.2v.2h-.2v.2h-.2v.2h-.2v.2h-.2v.2h-.2v.2h-.2v.2h-.2v.2h-.2v.2h-.2v.2h-.2v.2h-.2v.2h-.2v.2h-.2v.2h-.2v.2h-.2v.2h-.2v.2h-.2v.2h-.2v.2h-.2v.2h-.2v.2h-.2c0,0,0,.1,0,.1h-.2v.2h-.2v.2h-.2v.2h-.2v.2h-.2v.2h-.2v.2h-.2v.2h-.2v.2h-.2v.2h-.2v.2h-.2v.2h-.2v.2h-.2v.2h-.2v.2h-.2v.2h-.2v.2h-.2v.2h-.2v.2h-.2v.2h-.2v.2h-.2v.2h-.2v.2h-.2v.2h-.2v.2h-.2v.2h-.2v.2h-.2v.2h-.2v.2h-.2v.2h-.2v.2h-.2v.2h-.2v.2h-.2v.2h-.2v.2h-.2v.2h-.2s-2,136.2-2,136.2l21.9-3.9h0c0,.1-.1.2-.1.2h0c0,.1-.1.2-.1.2h0c0,.1,0,0,0,0h0c0,.1-.1.2-.1.2h0c0,.1-.1.2-.1.2h0c0,.1-.1.2-.1.2h0c0,.1-.1.2-.1.2h0c0,0-.1.2-.1.2h0c0,.1-.1.2-.1.2h0c0,.1-.1.2-.1.2h0c0,.1-.1.2-.1.2h0c0,.1-.1.2-.1.2h0c0,.1-.1.2-.1.2h0c0,.1-.1.2-.1.2h0c0,.1-.1.2-.1.2h0c0,.1-.1.2-.1.2h0c0,.1-.1.2-.1.2h0c0,.1-.1.2-.1.2h0c0,.1-.1.2-.1.2h0c0,.1-.1.2-.1.2h0c0,.1-.1.2-.1.2h0c0,.1-.1.2-.1.2h0c0,.1-.1.2-.1.2h0c0,.1-.1.2-.1.2h0c0,.1-.1.2-.1.2h0c0,.1-.1.2-.1.2h0c0,.1-.1.2-.1.2h0c0,.1-.1.2-.1.2h0c0,.1-.1.2-.1.2h0c0,.1-.1.2-.1.2h0c0,.1-.1.2-.1.2h0c0,.1-.1.2-.1.2h0c0,.1-.1.2-.1.2h0c0,.1-.1.2-.1.2h0c0,.1-.1.2-.1.2h0c0,.1-.1.2-.1.2h0c0,.1-.1.2-.1.2h0c0,.1-.1.2-.1.2h0c0,.1-.1.2-.1.2h0c0,.1-.1.2-.1.2h0c0,.1-.1.2-.1.2h0c0,.1-.1.2-.1.2h0c0,.1-.1.2-.1.2h0c0,.1-.1.2-.1.2h0c0,.1-.1.2-.1.2h0c0,.1-.1.2-.1.2h0c0,.1-.1.2-.1.2h0c0,.1,0,0,0,0l-4.4,5.2-10,24.6-.9,57.7,10,22.9,6,4.7,22.7,6.6,26.9-4.8,20.3-13.7h0c0-.1.1-.2.1-.2h0c0-.1.1-.2.1-.2h0c0-.1.1-.2.1-.2h0c0-.1.1-.2.1-.2h0c0-.1.1-.2.1-.2h0c0-.1.1-.2.1-.2h0c0-.1.1-.2.1-.2h0c0-.1.1-.2.1-.2h0c0-.1.1-.2.1-.2h0c0-.1.1-.2.1-.2h0c0-.1.1-.2.1-.2h0c0-.1.1-.2.1-.2h0c0-.1.1-.2.1-.2h0c0-.1.1-.2.1-.2h0c0-.1.1-.2.1-.2h0c0-.1.1-.2.1-.2h0c0-.1.1-.2.1-.2h0c0-.1.1-.2.1-.2h0c0-.1.1-.2.1-.2h0c0-.1.1-.2.1-.2h0c0-.1.1-.2.1-.2h0c0-.1.1-.2.1-.2h0c0-.1.1-.2.1-.2h0c0-.1.1-.2.1-.2h0c0-.1.1-.2.1-.2h0c0-.1.1-.2.1-.2h0c0-.1.1-.2.1-.2h0c0-.1.1-.2.1-.2h0c0-.1.1-.2.1-.2h0c0-.1.1-.2.1-.2h0c0-.1.1-.2.1-.2h0c0-.1.1-.2.1-.2h0c0-.1.1-.2.1-.2h0c0-.1.1-.2.1-.2h0c0-.1.1-.2.1-.2h0c0-.1.1-.2.1-.2h0c0-.1.1-.2.1-.2h0c0-.1.1-.2.1-.2h0c0-.1.1-.2.1-.2h0c0-.1.1-.2.1-.2h0c0-.1.1-.2.1-.2h0c0-.1.1-.2.1-.2h0c0-.1.1-.2.1-.2h0c0-.1.1-.2.1-.2h0c0-.1.1-.2.1-.2h0c0-.1.1-.2.1-.2h0c0-.1.1-.2.1-.2h0c0-.1.1-.2.1-.2h0c0-.1.1-.2.1-.2h0c0-.1.1-.2.1-.2h0c0-.1.1-.2.1-.2h0c0-.1.1-.2.1-.2h0c0-.1.1-.2.1-.2h0c0-.1.1-.2.1-.2h0c0-.1.1-.2.1-.2h0c0-.1.1-.2.1-.2h0c0-.1.1-.2.1-.2h0c0-.1.1-.2.1-.2h0c0-.1.1-.2.1-.2h0c0-.1.1-.2.1-.2h0c0-.1.1-.2.1-.2h0c0-.1.1-.2.1-.2h0c0-.1.1-.2.1-.2h0c0-.1.1-.2.1-.2h0c0-.1.1-.2.1-.2h0c0-.1.1-.2.1-.2h0c0-.1.1-.2.1-.2h0c0-.1.1-.2.1-.2h0c0-.1.1-.2.1-.2h0c0-.1.1-.2.1-.2h0c0-.1.1-.2.1-.2h0c0-.1.1-.2.1-.2h0c0-.1.1-.2.1-.2l2,4.7,6,4.7,22.7,6.6,25.3-4.5,21.7-13.8h.1c0-.1.1-.2.1-.2h.1c0-.1.1-.2.1-.2h.1c0-.1.1-.2.1-.2h.1c0-.1.1-.2.1-.2h.1c0-.1.1-.2.1-.2h.1c0-.1.1-.2.1-.2h.1c0-.1.1-.2.1-.2h.1c0-.1.1-.2.1-.2h.1c0-.1.1-.2.1-.2h.1c0-.1.1-.2.1-.2h.1c0-.1.1-.2.1-.2h.1c0-.1.1-.2.1-.2h.1c0-.1.1-.2.1-.2h.1c0-.1.1-.2.1-.2h.1c0-.1.1-.2.1-.2h.1c0-.1.1-.2.1-.2h.1c0-.1.1-.2.1-.2h.1c0-.1.1-.2.1-.2h.1c0-.1.1-.2.1-.2h.1c0-.1.1-.2.1-.2h.1c0-.1.1-.2.1-.2h.1c0-.1.1-.2.1-.2h.1c0-.1.1-.2.1-.2h.1c0-.1.1-.2.1-.2h.1c0-.1.1-.2.1-.2h.1c0-.1.1-.2.1-.2h.1c0-.1.1-.2.1-.2h.1c0-.1.1-.2.1-.2h.1c0-.1.1-.2.1-.2h.1c0-.1.1-.2.1-.2h.1c0-.1.1-.2.1-.2h.1c0-.1.1-.2.1-.2h.1c0-.1.1-.2.1-.2h.1c0-.1.1-.2.1-.2h.1c0-.1.1-.2.1-.2h.1c0-.1.1-.2.1-.2h.1c0-.1.1-.2.1-.2h.1c0-.1.1-.2.1-.2h.1c0-.1.1-.2.1-.2h.1c0-.1.1-.2.1-.2h.1c0-.1.1-.2.1-.2h.1c0-.1.1-.2.1-.2h.1c0-.1.1-.2.1-.2h.1c0-.1.1-.2.1-.2h.1c0-.1.1-.2.1-.2h.1c0-.1.1-.2.1-.2h.1c0-.1.1-.2.1-.2h.1c0-.1.1-.2.1-.2h.1c0-.1.1-.2.1-.2h.1c0-.1.1-.2.1-.2h.1c0-.1.1-.2.1-.2h.1c0-.1.1-.2.1-.2h.1c0-.1.1-.2.1-.2h.1c0-.1.1-.2.1-.2h.1c0-.1.1-.2.1-.2h.1c0-.1.1-.2.1-.2h.1c0-.1.1-.2.1-.2h.1c0-.1.1-.2.1-.2h.1c0-.1.1-.2.1-.2h.1c0-.1.1-.2.1-.2h.1c0-.1.1-.2.1-.2h.1c0-.1.1-.2.1-.2l-.3,19.6,79.7-14.3v-.2h.2v-.2h.2v-.2h.2v-.2h.2v-.2h.2v-.2h.2v-.2h.2v-.2h.2v-.2h.2v-.2h.2v-.2h.2v-.2h.2v-.2h.2v-.2h.2v-.2h.2v-.2h.2v-.2h.2v-.2h.2v-.2h.2v-.2h.2v-.2h.2v-.2h.2v-.2h.2v-.2h.2v-.2h.2v-.2h.2v-.2h.2v-.2h.2v-.2h.2v-.2h.2v-.2h.2v-.2h.2v-.2h.2v-.2h.2v-.2h.2v-.2h.2v-.2h.2v-.2h.2v-.2h.2v-.2h.2v-.2h.2v-.2h.2v-.2h.2v-.2h.2v-.2h.2v-.2h.2v-.2h.2v-.2h.2v-.2h.2v-.2h.2v-.2h.2v-.2h.2v-.2h.2v-.2h.2v-.2h.2v-.2h.2v-.2h.2v-.2h.2v-.2h.2v-.2h.2c0-.1,20.1,5.7,20.1,5.7l25.3-4.5,21.7-13.8h.1c0-.1.1-.2.1-.2h.1c0-.1.1-.2.1-.2h.1c0-.1.1-.2.1-.2h.1c0-.1.1-.2.1-.2h.1c0-.1.1-.2.1-.2h.1c0-.1.1-.2.1-.2h.1c0-.1.1-.2.1-.2h.1c0-.1.1-.2.1-.2h.1c0-.1.1-.2.1-.2h.1c0-.1.1-.2.1-.2h.1c0-.1.1-.2.1-.2h.1c0-.1.1-.2.1-.2h.1c0-.1.1-.2.1-.2h.1c0-.1.1-.2.1-.2h.1c0-.1.1-.2.1-.2h.1c0-.1.1-.2.1-.2h.1c0-.1.1-.2.1-.2h.1c0-.1.1-.2.1-.2h.1c0-.1.1-.2.1-.2h.1c0-.1.1-.2.1-.2h.1c0-.1.1-.2.1-.2h.1c0-.1.1-.2.1-.2h.1c0-.1.1-.2.1-.2h.1c0-.1.1-.2.1-.2h.1c0-.1.1-.2.1-.2h.1c0-.1.1-.2.1-.2h.1c0-.1.1-.2.1-.2h.1c0-.1.1-.2.1-.2h.1c0-.1.1-.2.1-.2h.1c0-.1.1-.2.1-.2h.1c0-.1.1-.2.1-.2h.1c0-.1.1-.2.1-.2h.1c0-.1.1-.2.1-.2h.1c0-.1.1-.2.1-.2h.1c0-.1.1-.2.1-.2h.1c0-.1.1-.2.1-.2h.1c0-.1.1-.2.1-.2h.1c0-.1.1-.2.1-.2h.1c0-.1.1-.2.1-.2h.1c0-.1.1-.2.1-.2h.1c0-.1.1-.2.1-.2h.1c0-.1.1-.2.1-.2h.1c0-.1.1-.2.1-.2h.1c0-.1.1-.2.1-.2h.1c0-.1.1-.2.1-.2h.1c0-.1.1-.2.1-.2h.1c0-.1.1-.2.1-.2h.1c0-.1.1-.2.1-.2h.1c0-.1.1-.2.1-.2h.1c0-.1.1-.2.1-.2h.1c0-.1.1-.2.1-.2h.1c0-.1.1-.2.1-.2h.1c0-.1.1-.2.1-.2h.1c0-.1.1-.2.1-.2h.1c0-.1.1-.2.1-.2h.1c0-.1.1-.2.1-.2h.1c0-.1.1-.2.1-.2h.1c0-.1.1-.2.1-.2h.1c0-.1.1-.2.1-.2h.1c0-.1.1-.2.1-.2h.1c0-.1.1-.2.1-.2h.1c0-.1.1-.2.1-.2l-.3,19.6,42-7.5v-.2h.2v-.2h.2v-.2h.2v-.2h.2v-.2h.2v-.2h.2v-.2h.2v-.2h.2v-.2h.2v-.2h.2v-.2h.2v-.2h.2v-.2h.2v-.2h.2v-.2h.2v-.2h.2v-.2h.2v-.2h.2v-.2h.2v-.2h.2v-.2h.2v-.2h.2v-.2h.2v-.2h.2v-.2h.2v-.2h.2v-.2h.2v-.2h.2v-.2h.2v-.2h.2v-.2h.2v-.2h.2v-.2h.2v-.2h.2v-.2h.2v-.2h.2v-.2h.2v-.2h.2v-.2h.2v-.2h.2v-.2h.2v-.2h.2v-.2h.2v-.2h.2v-.2h.2v-.2h.2v-.2h.2v-.2h.2v-.2h.2v-.2h.2v-.2h.2v-.2h.2v-.2h.2v-.2h.2v-.2h.2v-.2h.2v-.2h.2v-.2h.2v-.2h.2v-.2h.2v-.2h.2v-.2h.2v-.2h.2v-.2h.2v-.2h.2v-.2h.2v-.2h.2v-.2h.2v-.2h.2s-.2,10.7-.2,10.7l42-7.5h0l45-8,21.7-13.8h.1c0-.1.1-.2.1-.2h.1c0-.1.1-.2.1-.2h.1c0-.1.1-.2.1-.2h.1c0-.1.1-.2.1-.2h.1c0-.1.1-.2.1-.2h.1c0-.1.1-.2.1-.2h.1c0-.1.1-.2.1-.2h.1c0-.1.1-.2.1-.2h.1c0-.1.1-.2.1-.2h.1c0-.1.1-.2.1-.2h.1c0-.1.1-.2.1-.2h.1c0-.1.1-.2.1-.2h.1c0-.1.1-.2.1-.2h.1c0-.1.1-.2.1-.2h.1c0-.1.1-.2.1-.2h.1c0-.1.1-.2.1-.2h.1c0-.1.1-.2.1-.2h.1c0-.1.1-.2.1-.2h.1c0-.1.1-.2.1-.2h.1c0-.1.1-.2.1-.2h.1c0-.1.1-.2.1-.2h.1c0-.1.1-.2.1-.2h.1c0-.1.1-.2.1-.2h.1c0-.1.1-.2.1-.2h.1c0-.1.1-.2.1-.2h.1c0-.1.1-.2.1-.2h.1c0-.1.1-.2.1-.2h.1c0-.1.1-.2.1-.2h.1c0-.1.1-.2.1-.2h.1c0-.1.1-.2.1-.2h.1c0-.1.1-.2.1-.2h.1c0-.1.1-.2.1-.2h.1c0-.1.1-.2.1-.2h.1c0-.1.1-.2.1-.2h.1c0-.1.1-.2.1-.2h.1c0-.1.1-.2.1-.2h.1c0-.1.1-.2.1-.2h.1c0-.1.1-.2.1-.2h.1c0-.1.1-.2.1-.2h.1c0-.1.1-.2.1-.2h.1c0-.1.1-.2.1-.2h.1c0-.1.1-.2.1-.2h.1c0-.1.1-.2.1-.2h.1c0-.1.1-.2.1-.2h.1c0-.1.1-.2.1-.2h.1c0-.1.1-.2.1-.2h.1c0-.1.1-.2.1-.2h.1c0-.1.1-.2.1-.2h.1c0-.1.1-.2.1-.2h.1c0-.1.1-.2.1-.2h.1c0-.1.1-.2.1-.2h.1c0-.1.1-.2.1-.2h.1c0-.1.1-.2.1-.2h.1c0-.1.1-.2.1-.2h.1c0-.1.1-.2.1-.2h.1c0-.1.1-.2.1-.2h.1c0-.1.1-.2.1-.2h.1c0-.1.1-.2.1-.2h.1c0-.1.1-.2.1-.2h.1c0-.1.1-.2.1-.2h.1c0-.1.1-.2.1-.2h.1c0-.1.1-.2.1-.2h.1c0-.1.1-.2.1-.2h.1c0-.1.1-.2.1-.2h.1c0-.1.1-.2.1-.2h.1c0-.1.1-.2.1-.2h.1c0-.1.1-.2.1-.2h.1c0-.1.1-.2.1-.2h.1c0-.1.1-.2.1-.2h.1c0-.1.1-.2.1-.2h.1c0-.1.1-.2.1-.2h.1c0-.1.1-.2.1-.2h.1c0-.1.1-.2.1-.2h.1c0-.1.1-.2.1-.2h.1c0-.1.1-.2.1-.2h.1c0-.1.1-.2.1-.2h.1c0-.1.1-.2.1-.2h.1c0-.1.1-.2.1-.2h.1c0-.1.1-.2.1-.2h.1c0-.1.1-.2.1-.2h.1c0-.1.1-.2.1-.2h.1c0-.1.1-.2.1-.2h.1c0-.1.1-.2.1-.2h.1c0-.1.1-.2.1-.2h.1c0-.1.1-.2.1-.2h.1c0-.1.1-.2.1-.2h.1c0-.1.1-.2.1-.2h.1c0-.1.1-.2.1-.2h.1c0-.1.1-.2.1-.2h.1c0-.1.1-.2.1-.2h.1c0-.1.1-.2.1-.2h.1c0-.1.1-.2.1-.2h.1c0-.1.1-.2.1-.2h.1c0-.1.1-.2.1-.2h.1c0-.1.1-.2.1-.2h.1c0-.1.1-.2.1-.2h.1c0-.1.1-.2.1-.2h.1c0-.1.1-.2.1-.2h.1c0-.1.1-.2.1-.2h.1c0-.1.1-.2.1-.2h.1c0-.1.1-.2.1-.2l4.5-5,10-24.8.3-17.9-11.3-16ZM72.4,308.2l-2.3-.5h4.8,0s-2.5.5-2.5.5ZM514,140h0s0,0,0,0h0ZM514.2,139.9h0c0,0,.1,0,.1,0h-.1Z"/>
  <g>
    <polygon class="cls-1" points="62.4 146.8 93.9 141.2 94.2 121.9 62.7 127.5 63 106.6 101.4 99.7 101.7 80.4 43.4 90.9 41.6 204.6 61.6 201.1 62.4 146.8"/>
    <polygon class="cls-1" points="178.4 160.9 140.7 167.7 142.1 73.2 122.2 76.8 120.4 190.5 178.1 180.2 178.4 160.9"/>
    <polygon class="cls-1" points="261.3 51.9 243 55.2 242.8 65.4 229.2 94.4 229.1 101.5 223.6 108.1 219.7 108.8 214.3 104.2 214.4 97 201.6 72.8 201.8 62.5 183.5 65.8 183.2 83.4 211.4 136.2 210.8 174.4 230.7 170.8 231.3 132.6 261 69.5 261.3 51.9"/>
    <polygon class="cls-1" points="280.3 161.9 300.3 158.4 302 44.6 282 48.2 280.3 161.9"/>
    <polygon class="cls-1" points="408.1 139.1 409.8 25.3 389.9 28.9 389 84.3 384.4 85.2 358.3 62.4 351.5 51.2 351.8 35.7 331.8 39.3 330.1 153 350.1 149.5 351 88.6 355.6 87.8 381.7 110.6 388.5 121.9 388.1 142.7 408.1 139.1"/>
    <polygon class="cls-1" points="443.1 124.3 461.5 129.6 510.3 120.8 511.2 60.5 475.1 66.9 474.8 86 491 83.1 490.6 105.1 471.3 108.6 462.2 106.6 456.6 102 453.3 91.7 453.9 56.8 457.5 45.4 463.2 38.6 472.5 33.4 511.7 26.3 512 7.1 463.2 15.8 444.6 27.6 442.6 30.2 434.1 51.3 433.3 104.5 441.2 122.6 443.1 124.3"/>
    <polygon class="cls-1" points="106.2 221.4 89.3 215.9 67.2 219.8 48.8 231.6 46.6 234.2 38.1 255.3 37.3 308.5 45.2 326.7 47.4 328.3 65.5 333.6 87.6 329.7 104.7 318.1 111.1 310.7 112.4 306.2 112.6 294.9 101.4 296.9 97.3 299.2 92.7 304.4 83.1 311.2 75.5 312.6 66.2 310.7 60.7 305.9 57.4 295.6 57.9 260.8 61.5 249.4 67.2 242.6 76.7 237.4 84.2 236 93.7 239.3 98.1 243.1 102.2 243.7 113.4 241.7 113.6 230.8 112.3 226.7 106.2 221.4"/>
    <path class="cls-1" d="M200.6,204.5l-18.3-5.2-20.6,3.7-18.4,11.8-2.2,2.6-8.5,21.1-.8,53.2,7.9,18.1,2.1,1.7,18.2,5.3,20.6-3.7,18.6-11.8,2.2-2.4,8.5-21.1.8-53.2-7.9-18.1-2.1-1.8ZM190.1,271.9l-3.6,11.5-5.7,6.8-9.4,5.3-1.3.2-9.3-1.9-5.5-4.8-3.2-9.9,23.6-4.2.3-18.4-23.8,4.2.2-16.8,3.6-11.4,5.7-6.8,9.4-5.3,1.3-.2,9.3,1.9,5.5,4.8,3.3,10.1-.5,34.8Z"/>
    <polygon class="cls-1" points="253 186.6 233.1 190.2 231.3 304 289 293.6 289.3 274.4 251.6 281.1 253 186.6"/>
    <path class="cls-1" d="M374.9,173.3l-18.3-5.2-20.6,3.7-18.4,11.8-2.2,2.6-8.5,21.1-.8,53.2,8,18.1,2.1,1.7,18.2,5.3,20.6-3.7,18.6-11.8,2.2-2.4,8.5-21.1.8-53.2-8-18.1-2.1-1.8ZM364.3,240.7l-3.6,11.5-5.7,6.8-9.5,5.3-1.3.2-9.3-1.9-5.5-4.8-3.3-10.3v-.3s23.2-4.1,23.2-4.1l.3-18.4-23.2,4.1.2-16,3.6-11.4,5.7-6.8,9.5-5.3,1.3-.2,9.3,1.9,5.5,4.8,3.3,10.1-.5,34.8Z"/>
    <path class="cls-1" d="M474.2,155.6l-18.2-5.3-48.8,8.7-1.7,113.8,20-3.6.6-40.4,20-3.6,9.3,1.7,5.5,5,2.5,7.2-.4,23.4,19.9-3.6.4-29.3-6.7-11.6-5.4-4.8v-4.4c0,0,5.6-6.6,5.6-6.6l7.1-14,.2-12.6-8-18.1-2.1-1.8ZM461.5,193.9l-5.7,6.8-9.5,5.3-20,3.6.5-34.8,20-3.6,9.3,1.9,5.5,4.8,2.5,7.7-2.7,8.3Z"/>
    <polygon class="cls-1" points="557.6 190 525.5 178.2 522.9 174.9 525.7 166.4 531.4 159.6 540.8 154.4 563.6 150.3 563.9 131 532.4 136.7 513.8 148.5 511.6 151.1 503.1 172.2 502.9 184.8 509.6 196.4 541.7 208.2 544.2 211.6 541.5 220.1 535.8 226.9 526.4 232 502.1 236.3 501.8 255.6 534.8 249.7 553.4 237.9 555.6 235.4 564.1 214.3 564.3 201.6 557.6 190"/>
  </g>
</svg>